<svg aria-hidden="true" style="position:absolute;width:0;height:0;overflow:hidden"
    xmlns="http://www.w3.org/2000/svg">
    <defs>
        <symbol id="shape1" viewBox="0 0 23 32">
            <path fill="#fdc021" style="fill: var(--color1, #fdc021)"
                d="M15.63 0.854c-7.209-3.141-12.527 3.587-14.311 7.395-5.585 15.611 8.672 25.151 15.53 23.52 9.472-2.253 5.074-8.739 1.691-11.701-2.559-3.205-1.804-10.854-1.107-14.279 1.033-2.221-0.789-4.182-1.804-4.936z"></path>
        </symbol>
        <symbol id="shape2" viewBox="0 0 26 32">
            <path fill="#fec828" opacity="0.2" style="fill: var(--color2, #fec828)"
                d="M12.002 30.809c-20.602-6.112-10.082-23.071-2.247-30.787l9.865-2.787 15.393-2.090 3.978 12.427c-0.412 10.292-6.387 29.348-26.989 23.236z"></path>
        </symbol>
        <symbol id="arrow-right" viewBox="0 0 32 32">
            <path
                d="M16 0c-8.837 0-16 7.163-16 16s7.163 16 16 16 16-7.163 16-16-7.163-16-16-16zM16 29c-7.18 0-13-5.82-13-13s5.82-13 13-13 13 5.82 13 13-5.82 13-13 13z"></path>
            <path d="M11.086 22.086l2.829 2.829 8.914-8.914-8.914-8.914-2.828 2.828 6.086 6.086z"></path>
        </symbol>
        <symbol id="arrow-left" viewBox="0 0 32 32">
            <path
                d="M16 32c8.837 0 16-7.163 16-16s-7.163-16-16-16-16 7.163-16 16 7.163 16 16 16zM16 3c7.18 0 13 5.82 13 13s-5.82 13-13 13-13-5.82-13-13 5.82-13 13-13z"></path>
            <path d="M20.914 9.914l-2.829-2.829-8.914 8.914 8.914 8.914 2.828-2.828-6.086-6.086z"></path>
        </symbol>
        <symbol id="facebook" viewBox="0 0 17 32">
            <path
                d="M11.624 31.706V17.992h4.164l.68-6.095h-4.844V8.928c0-1.57.04-3.127 2.233-3.127h2.221V1.443c0-.066-1.908-.214-3.839-.214-4.032 0-6.556 2.525-6.556 7.162v3.504H1.228v6.095h4.455v13.714h5.94z" />
        </symbol>
        <symbol id="instagram" viewBox="0 0 32 32">
            <path
                d="M16.264 4.003c4.038 0 4.512.018 6.108.09 1.476.066 2.274.312 2.808.522.708.276 1.212.6 1.74 1.128s.858 1.032 1.128 1.74c.204.534.456 1.332.522 2.808.072 1.596.09 2.07.09 6.108s-.018 4.512-.09 6.108c-.066 1.476-.312 2.274-.522 2.808-.276.708-.6 1.212-1.128 1.74s-1.032.858-1.74 1.128c-.534.204-1.332.456-2.808.522-1.596.072-2.07.09-6.108.09s-4.512-.018-6.108-.09c-1.476-.066-2.274-.312-2.808-.522-.708-.276-1.212-.6-1.74-1.128s-.858-1.032-1.128-1.74c-.204-.534-.456-1.332-.522-2.808-.072-1.596-.09-2.07-.09-6.108s.018-4.512.09-6.108c.066-1.476.312-2.274.522-2.808.276-.708.6-1.212 1.128-1.74s1.032-.858 1.74-1.128c.534-.204 1.332-.456 2.808-.522 1.596-.078 2.07-.09 6.108-.09zm0-2.724c-4.104 0-4.62.018-6.234.09-1.608.072-2.706.33-3.666.702-.996.384-1.836.906-2.676 1.746S2.332 5.503 1.942 6.493c-.372.96-.63 2.058-.702 3.672-.072 1.608-.09 2.124-.09 6.228s.018 4.62.09 6.234c.072 1.608.33 2.706.702 3.672.384.996.906 1.836 1.746 2.676s1.686 1.356 2.676 1.746c.96.372 2.058.63 3.672.702s2.124.09 6.234.09c4.11 0 4.62-.018 6.234-.09 1.608-.072 2.706-.33 3.672-.702.996-.384 1.836-.906 2.676-1.746s1.356-1.686 1.746-2.676c.372-.96.63-2.058.702-3.672s.09-2.124.09-6.234c0-4.11-.018-4.62-.09-6.234-.072-1.608-.33-2.706-.702-3.672-.384-.996-.906-1.836-1.746-2.676s-1.686-1.356-2.676-1.746c-.96-.372-2.058-.63-3.672-.702-1.62-.066-2.136-.084-6.24-.084z" />
            <path
                d="M16.264 8.629a7.765 7.765 0 0 0 0 15.528 7.769 7.769 0 0 0 7.764-7.764 7.769 7.769 0 0 0-7.764-7.764zm0 12.804a5.04 5.04 0 1 1 0-10.08 5.04 5.04 0 1 1 0 10.08zM24.334 10.135a1.812 1.812 0 1 0 0-3.623 1.812 1.812 0 0 0 0 3.623z" />
        </symbol>
        <symbol id="linkedin" viewBox="0 0 32 32">
            <path
                d="M30.748 31.675h-6.229V21.066c0-2.909-1.105-4.534-3.408-4.534-2.505 0-3.813 1.692-3.813 4.534v10.609h-6.003v-20.21h6.003v2.722s1.805-3.34 6.094-3.34c4.287 0 7.356 2.618 7.356 8.032v12.796zM4.134 8.818c-2.045 0-3.702-1.67-3.702-3.729S2.089 1.36 4.134 1.36s3.701 1.67 3.701 3.729-1.656 3.729-3.701 3.729zm-3.1 22.857h6.26v-20.21h-6.26v20.21z" />
        </symbol>
        <symbol id="ellipse" viewBox="0 0 30 32">
            <path
                d="M16.147.681C12.139.998 8.294 2.755 5.315 5.632c-2.719 2.625-4.251 5.75-4.797 9.789-.128.946-.129 3.494-.001 4.406.284 2.029.726 3.531 1.511 5.132 1.256 2.565 3.031 4.389 5.408 5.559 1.185.583 2.282.916 3.666 1.109.823.115 2.572.112 3.444-.005 3.873-.522 7.564-2.403 10.339-5.268 2.943-3.039 4.506-7.058 4.506-11.585 0-4.786-1.815-9.045-4.933-11.574a11.326 11.326 0 0 0-2.101-1.321 11.26 11.26 0 0 0-3.64-1.102c-.564-.075-2.092-.13-2.569-.093zm2.355 1.346a10.177 10.177 0 0 1 5.305 2.286c3.576 2.984 5.149 8.72 3.901 14.224a14.578 14.578 0 0 1-2.05 4.844 12.79 12.79 0 0 1-1.699 2.096c-2.518 2.587-5.732 4.276-9.214 4.842-.664.108-2.552.153-3.237.076-2.907-.324-5.339-1.68-7.092-3.952-2.695-3.495-3.498-8.883-2.04-13.692a14.408 14.408 0 0 1 2.373-4.615c.486-.64 1.923-2.083 2.636-2.646 2.374-1.877 5.147-3.077 7.986-3.457.718-.096 2.38-.099 3.131-.006z" />
        </symbol>
        <symbol id="computer" viewBox="0 0 32 32">
            <path
                d="M31.755 19.913h-31.509v-16.43c0-1.046 0.851-1.898 1.898-1.898h27.714c1.046 0 1.898 0.851 1.898 1.898v16.43zM0.946 19.213h30.109v-15.73c0-0.66-0.537-1.197-1.197-1.197h-27.714c-0.66 0-1.197 0.537-1.197 1.197v15.73z"></path>
            <path
                d="M29.857 24.262h-27.714c-1.046 0-1.898-0.851-1.898-1.898v-3.152h31.509v3.152c0 1.046-0.851 1.898-1.898 1.898zM0.946 19.913v2.452c0 0.66 0.537 1.197 1.197 1.197h27.714c0.66 0 1.197-0.537 1.197-1.197v-2.452h-30.109z"></path>
            <path
                d="M20.84 28.591h-9.68c-0.151 0-0.285-0.097-0.333-0.241s0.003-0.301 0.125-0.391c1.33-0.976 2.217-2.468 2.435-4.093 0.023-0.174 0.172-0.304 0.347-0.304h4.53c0.175 0 0.324 0.13 0.347 0.304 0.218 1.625 1.106 3.116 2.435 4.093 0.122 0.090 0.173 0.247 0.125 0.391s-0.181 0.241-0.332 0.241zM12.109 27.89h7.782c-0.995-0.98-1.675-2.254-1.925-3.628h-3.932c-0.25 1.375-0.929 2.648-1.925 3.628z"></path>
            <path
                d="M21.621 30.415h-11.241c-0.696 0-1.262-0.566-1.262-1.262s0.566-1.262 1.262-1.262h11.241c0.696 0 1.262 0.566 1.262 1.262s-0.566 1.262-1.262 1.262zM10.379 28.591c-0.31 0-0.562 0.252-0.562 0.562s0.252 0.562 0.562 0.562h11.241c0.31 0 0.562-0.252 0.562-0.562s-0.252-0.562-0.562-0.562h-11.241z"></path>
            <path
                d="M16.596 22.088h-1.191c-0.193 0-0.35-0.156-0.35-0.35s0.157-0.35 0.35-0.35h1.191c0.194 0 0.35 0.156 0.35 0.35s-0.156 0.35-0.35 0.35z"></path>
            <path
                d="M12.949 14.155c-1.223 0-1.575-1.088-1.858-1.962-0.29-0.895-0.5-1.444-1.142-1.444-0.193 0-0.35-0.157-0.35-0.35s0.157-0.35 0.35-0.35c0.642 0 0.853-0.549 1.143-1.444 0.283-0.875 0.635-1.962 1.858-1.962 0.193 0 0.35 0.157 0.35 0.35s-0.157 0.35-0.35 0.35c-0.679 0-0.895 0.562-1.192 1.478-0.179 0.553-0.386 1.192-0.826 1.578 0.44 0.386 0.647 1.025 0.826 1.578 0.296 0.916 0.513 1.478 1.192 1.478 0.193 0 0.35 0.157 0.35 0.35s-0.157 0.35-0.351 0.35z"></path>
            <path
                d="M19.051 14.155c-0.194 0-0.35-0.157-0.35-0.35s0.156-0.35 0.35-0.35c0.678 0 0.895-0.562 1.192-1.478 0.179-0.552 0.386-1.192 0.826-1.578-0.44-0.386-0.648-1.025-0.826-1.578-0.297-0.917-0.513-1.478-1.192-1.478-0.194 0-0.35-0.157-0.35-0.35s0.156-0.35 0.35-0.35c1.223 0 1.575 1.088 1.858 1.962 0.29 0.895 0.5 1.444 1.142 1.444 0.194 0 0.35 0.157 0.35 0.35s-0.157 0.35-0.35 0.35c-0.642 0-0.853 0.549-1.143 1.444-0.283 0.874-0.635 1.962-1.858 1.962z"></path>
            <path
                d="M14.624 14.968c-0.037 0-0.074-0.006-0.111-0.018-0.183-0.062-0.282-0.26-0.221-0.443l2.829-8.438c0.062-0.183 0.26-0.282 0.443-0.221s0.283 0.26 0.221 0.443l-2.829 8.438c-0.049 0.146-0.186 0.239-0.332 0.239z"></path>
        </symbol>
        <symbol id="koma" viewBox="0 0 32 32">
            <path fill="#fdc221" style="fill: var(--color1, #fdc221)"
                d="M22.206 25.795l4.994-10.536v-9.054h-10.207v9.603h3.896l-3.896 9.987h5.214zM18.517 14.284v-6.554h7.158v7.186l-4.434 9.354h-2.018l3.894-9.986-4.601-0.001z"></path>
            <path fill="#fdc221" style="fill: var(--color1, #fdc221)"
                d="M10.014 25.795l4.994-10.536v-9.054h-10.207v9.603h3.897l-3.897 9.987h5.214zM6.324 14.284v-6.554h7.158v7.186l-4.434 9.354h-2.018l3.894-9.986-4.602-0.001z"></path>
        </symbol>
        <symbol id="mobile" viewBox="0 0 32 32">
            <path
                d="M14.539 19.013c-1.447 0-2.894-0.551-3.996-1.653-2.203-2.203-2.203-5.789 0-7.992s5.789-2.204 7.992 0c2.204 2.203 2.204 5.789 0 7.992-1.102 1.102-2.549 1.653-3.996 1.653zM14.538 8.416c-1.268 0-2.536 0.482-3.501 1.448-1.93 1.93-1.93 5.071 0 7.002s5.072 1.93 7.002 0c1.93-1.93 1.93-5.071 0-7.002-0.965-0.965-2.233-1.448-3.501-1.448z"></path>
            <path
                d="M26.019 22.991l-4.653-4.654c-0.425-0.425-1.070-0.492-1.57-0.21l-1.027-1.027c1.959-2.217 1.885-5.612-0.235-7.732-2.203-2.204-5.789-2.203-7.992 0s-2.203 5.789 0 7.992c1.102 1.101 2.549 1.653 3.996 1.653 1.337 0 2.671-0.477 3.736-1.418l1.027 1.027c-0.282 0.5-0.216 1.145 0.21 1.57l4.654 4.653c0.247 0.247 0.576 0.383 0.927 0.383s0.681-0.136 0.927-0.383c0.247-0.247 0.383-0.577 0.383-0.928s-0.136-0.681-0.383-0.928zM11.038 16.866c-1.93-1.93-1.93-5.071 0-7.002 0.965-0.965 2.233-1.448 3.501-1.448s2.536 0.482 3.501 1.448c1.93 1.93 1.93 5.071 0 7.002s-5.072 1.93-7.002 0zM25.524 24.351c-0.23 0.23-0.635 0.23-0.865 0l-4.654-4.654c-0.238-0.239-0.238-0.627 0-0.866 0.119-0.119 0.276-0.179 0.433-0.179s0.313 0.059 0.432 0.179l4.653 4.654c0.115 0.115 0.178 0.268 0.178 0.432s-0.063 0.318-0.178 0.433z"></path>
            <path
                d="M10.875 15.376c-0.106 0-0.211-0.048-0.279-0.139-0.117-0.154-0.086-0.374 0.068-0.491l5.052-3.824c0.079-0.060 0.179-0.083 0.277-0.065s0.182 0.077 0.234 0.161l1.565 2.564 0.527-0.378c0.156-0.113 0.375-0.077 0.489 0.080s0.077 0.376-0.080 0.489l-0.833 0.598c-0.079 0.057-0.179 0.079-0.273 0.059-0.096-0.019-0.179-0.078-0.229-0.161l-1.56-2.556-4.744 3.59c-0.064 0.048-0.138 0.071-0.211 0.071z"></path>
            <path
                d="M23.626 19.434c0.194 0 0.35-0.157 0.35-0.35v-17.092c0-0.963-0.783-1.746-1.746-1.746h-14.888c-0.963 0-1.746 0.783-1.746 1.746v28.017c0 0.962 0.783 1.746 1.746 1.746h14.887c0.963 0 1.746-0.783 1.746-1.746v-4.253c0-0.194-0.157-0.35-0.35-0.35s-0.35 0.157-0.35 0.35v0.905h-16.978v-10.384l0.907 1.484c0.051 0.084 0.137 0.143 0.234 0.161 0.022 0.004 0.043 0.006 0.065 0.006 0.076 0 0.15-0.025 0.211-0.071l1.11-0.839c0.154-0.117 0.184-0.336 0.068-0.491s-0.336-0.185-0.491-0.068l-0.801 0.606-1.303-2.132v-10.672h16.979v5.382l-2.523 1.812c-0.157 0.113-0.193 0.332-0.080 0.489 0.068 0.095 0.176 0.146 0.285 0.146 0.071 0 0.142-0.021 0.204-0.066l2.114-1.519v8.577c0 0.193 0.157 0.35 0.35 0.35zM23.276 27.361v2.648c0 0.576-0.469 1.045-1.046 1.045h-14.888c-0.576 0-1.045-0.469-1.045-1.045v-2.648h16.979zM6.297 3.562v-1.57c0-0.577 0.469-1.046 1.045-1.046h14.887c0.577 0 1.046 0.469 1.046 1.046v1.57h-16.978z"></path>
            <path
                d="M14.787 30.469c-0.685 0-1.243-0.558-1.243-1.243s0.558-1.244 1.243-1.244c0.685 0 1.243 0.558 1.243 1.244s-0.558 1.243-1.243 1.243zM14.787 28.683c-0.299 0-0.543 0.244-0.543 0.543s0.244 0.543 0.543 0.543c0.299 0 0.543-0.243 0.543-0.543s-0.243-0.543-0.543-0.543z"></path>
            <path
                d="M16.917 2.58h-4.261c-0.193 0-0.35-0.157-0.35-0.35s0.157-0.35 0.35-0.35h4.261c0.194 0 0.35 0.157 0.35 0.35s-0.156 0.35-0.35 0.35z"></path>
        </symbol>
        <symbol id="planet" viewBox="0 0 32 32">
            <path
                d="M16 31.754c-8.687 0-15.755-7.067-15.755-15.754s7.067-15.755 15.755-15.755c8.687 0 15.754 7.067 15.754 15.755s-7.067 15.754-15.754 15.754zM16.35 21.657c2.268 0.036 4.467 0.424 6.465 1.12 0.498-1.94 0.789-4.12 0.816-6.426h-7.281v5.307zM16.35 22.357v8.68c2.688-0.241 5.018-3.236 6.28-7.584-1.936-0.68-4.073-1.059-6.28-1.096zM15.65 22.357c-2.208 0.036-4.344 0.416-6.28 1.096 1.262 4.348 3.592 7.343 6.28 7.584v-8.68zM15.65 21.657v-5.307h-7.281c0.027 2.307 0.318 4.486 0.816 6.426 1.999-0.696 4.197-1.083 6.465-1.12zM7.668 16.35h-6.714c0.079 3.437 1.314 6.593 3.332 9.092 1.229-0.992 2.668-1.811 4.252-2.429-0.533-2.015-0.842-4.274-0.87-6.663zM7.668 15.65c0.028-2.389 0.338-4.648 0.87-6.663-1.583-0.618-3.023-1.437-4.251-2.429-2.019 2.5-3.253 5.655-3.333 9.092h6.714zM8.369 15.65h7.281v-5.306c-2.268-0.036-4.467-0.424-6.465-1.12-0.498 1.94-0.789 4.12-0.816 6.426zM15.65 9.643v-8.68c-2.689 0.241-5.018 3.236-6.28 7.584 1.936 0.68 4.073 1.059 6.28 1.096zM16.35 9.643c2.207-0.036 4.344-0.416 6.28-1.096-1.262-4.349-3.591-7.344-6.28-7.584v8.68zM16.35 10.343v5.306h7.281c-0.027-2.307-0.318-4.486-0.816-6.426-1.999 0.696-4.197 1.084-6.465 1.12zM24.331 15.65h6.714c-0.079-3.437-1.314-6.593-3.333-9.092-1.229 0.992-2.668 1.811-4.252 2.429 0.532 2.015 0.842 4.274 0.87 6.663zM24.331 16.35c-0.028 2.389-0.337 4.648-0.87 6.663 1.584 0.618 3.023 1.437 4.252 2.429 2.019-2.5 3.253-5.655 3.332-9.092h-6.714zM27.26 25.976c-1.154-0.93-2.504-1.699-3.989-2.285-0.962 3.238-2.512 5.772-4.374 7.081 3.299-0.646 6.214-2.373 8.363-4.795zM13.103 30.772c-1.863-1.309-3.412-3.843-4.374-7.080-1.485 0.587-2.835 1.356-3.989 2.285 2.149 2.422 5.064 4.149 8.363 4.795zM4.739 6.024c1.154 0.929 2.504 1.699 3.989 2.285 0.962-3.237 2.512-5.771 4.374-7.080-3.299 0.646-6.214 2.372-8.363 4.795zM18.897 1.228c1.863 1.309 3.412 3.843 4.374 7.081 1.485-0.587 2.835-1.356 3.989-2.285-2.149-2.423-5.064-4.149-8.363-4.795z"></path>
        </symbol>
        <symbol id="rocket" viewBox="0 0 32 32">
            <path
                d="M20.838 13.821c-0.702 0-1.361-0.273-1.857-0.769s-0.77-1.155-0.77-1.857c0-0.701 0.273-1.361 0.77-1.857s1.155-0.769 1.857-0.769c0.701 0 1.361 0.273 1.857 0.769 1.024 1.024 1.024 2.69 0 3.714-0.496 0.496-1.156 0.769-1.857 0.769zM20.838 9.269c-0.515 0-0.998 0.2-1.362 0.564s-0.564 0.848-0.564 1.362c0 0.514 0.2 0.998 0.564 1.362s0.847 0.564 1.362 0.564c0.514 0 0.998-0.2 1.362-0.564 0.751-0.751 0.751-1.973 0-2.724-0.364-0.364-0.848-0.564-1.362-0.564zM19.229 9.585v0z"></path>
            <path
                d="M31.752 2.373c0-0.158-0.001-0.316-0.005-0.475-0.002-0.088-0.005-0.176-0.008-0.264-0.004-0.11-0.007-0.219-0.013-0.33-0.011-0.211-0.025-0.423-0.042-0.635-0.014-0.17-0.149-0.306-0.32-0.32-0.214-0.018-0.427-0.032-0.639-0.042-0.105-0.006-0.209-0.008-0.313-0.012-0.094-0.004-0.189-0.007-0.282-0.009-0.153-0.003-0.305-0.004-0.457-0.004-0.027 0-0.053 0-0.079 0-3.099 0.016-5.943 0.793-8.82 2.401-0.003 0.002-0.005 0.006-0.009 0.008-2.321 1.292-4.64 3.12-7.042 5.523-0.31 0.31-0.614 0.624-0.913 0.94-0.012-0-0.022-0.005-0.034-0.004l-4.813 0.366c-0.067 0.005-0.132 0.029-0.186 0.070l-7.397 5.628c-0.115 0.088-0.165 0.237-0.125 0.375s0.161 0.239 0.305 0.252l7.072 0.638 2.842 2.842c-0.927-0.006-1.969 0.428-2.802 1.261-0.377 0.377-0.68 0.8-0.901 1.26-0.309 0.654-0.996 2.36-1.723 4.166l-0.35 0.869c-0.053 0.13-0.022 0.279 0.077 0.378 0.067 0.067 0.157 0.103 0.248 0.103 0.044 0 0.089-0.008 0.131-0.025l0.899-0.362c1.792-0.722 3.485-1.404 4.139-1.712 0.457-0.22 0.88-0.522 1.257-0.9 0.66-0.66 1.097-1.471 1.229-2.283 0.029-0.176 0.039-0.346 0.038-0.513l2.771 2.77 0.639 7.073c0.013 0.144 0.113 0.265 0.252 0.305 0.032 0.009 0.065 0.014 0.097 0.014 0.107 0 0.211-0.050 0.279-0.138l5.628-7.397c0.041-0.054 0.066-0.118 0.070-0.185l0.359-4.719c0.339-0.319 0.676-0.644 1.008-0.976 2.403-2.403 4.231-4.722 5.524-7.043 0.002-0.003 0.005-0.005 0.007-0.008 1.61-2.88 2.387-5.725 2.401-8.83 0-0.018 0-0.037 0-0.055zM30.505 6.624c-0.011 0.041-0.022 0.082-0.034 0.123-0.325 1.172-0.812 2.422-1.519 3.752l-7.418-7.418c1.329-0.706 2.577-1.192 3.747-1.517 0.044-0.012 0.088-0.024 0.132-0.036 0.087-0.023 0.172-0.045 0.258-0.066 1.713-0.423 3.471-0.565 5.338-0.437 0.128 1.865-0.014 3.621-0.436 5.333-0.022 0.089-0.044 0.178-0.069 0.267zM8.12 10.204l4.005-0.304c-0.722 0.8-1.403 1.614-2.040 2.435-0.001 0.001-0.002 0.002-0.003 0.003-0.027 0.035-0.052 0.070-0.079 0.105-0.205 0.266-0.407 0.532-0.602 0.8-0.039 0.054-0.076 0.107-0.115 0.161-0.184 0.255-0.366 0.51-0.541 0.765-0.073 0.107-0.14 0.212-0.211 0.318-0.136 0.202-0.272 0.405-0.401 0.607-0.148 0.231-0.286 0.46-0.424 0.689l-6.184-0.559 6.597-5.019zM8.823 15.314c0.087-0.134 0.178-0.269 0.268-0.404 0.092-0.138 0.185-0.277 0.28-0.415 0.118-0.171 0.238-0.343 0.361-0.515 0.066-0.092 0.133-0.184 0.2-0.277 0.145-0.199 0.291-0.398 0.443-0.598 0.006-0.008 0.012-0.016 0.018-0.023l8.558 8.557c-0.010 0.007-0.020 0.015-0.029 0.023-0.196 0.148-0.391 0.292-0.586 0.434-0.096 0.070-0.191 0.139-0.287 0.207-0.169 0.121-0.339 0.239-0.507 0.356-0.143 0.098-0.286 0.194-0.429 0.289-0.13 0.087-0.261 0.175-0.391 0.259-0.281 0.181-0.561 0.358-0.841 0.527l-7.583-7.582c0.168-0.279 0.344-0.558 0.525-0.838zM11.989 21.963c-0.109 0.668-0.476 1.343-1.033 1.901-0.322 0.321-0.68 0.579-1.064 0.763-0.632 0.299-2.395 1.008-4.099 1.695l-0.137 0.055 0.044-0.109c0.691-1.716 1.406-3.491 1.705-4.124 0.185-0.386 0.443-0.744 0.764-1.066 0.695-0.695 1.551-1.069 2.284-1.069 0.448 0 0.85 0.139 1.141 0.431 0.357 0.356 0.497 0.897 0.395 1.524zM21.763 23.847l-5.019 6.596-0.549-6.084c0.248-0.148 0.496-0.299 0.746-0.459 0.197-0.126 0.394-0.259 0.591-0.391 0.112-0.075 0.223-0.146 0.335-0.223 0.248-0.17 0.496-0.347 0.744-0.526 0.062-0.044 0.123-0.087 0.184-0.132 0.258-0.188 0.514-0.383 0.771-0.58 0.043-0.033 0.087-0.064 0.13-0.098 0.001-0.001 0.002-0.003 0.004-0.004 0.794-0.616 1.583-1.273 2.358-1.97l-0.294 3.87zM23.325 17.814c-1.23 1.23-2.514 2.369-3.815 3.394l-8.686-8.685c1.025-1.301 2.164-2.585 3.395-3.815 2.416-2.416 4.639-4.104 6.677-5.274l7.703 7.703c-1.17 2.039-2.858 4.261-5.274 6.677z"></path>
        </symbol>
    </defs>
</svg>